<svg xmlns="http://www.w3.org/2000/svg" width="162" height="27" viewBox="0 0 162 27">
    <defs>
        <linearGradient id="gu9tc8xtga" x1="6.584%" x2="78.913%" y1="20.988%" y2="78.436%">
            <stop offset="40.96%" stop-color="#4496A0" stop-opacity="0"/>
            <stop offset="100%" stop-color="#4496A0" stop-opacity=".95"/>
        </linearGradient>
        <linearGradient id="mz8vliomub" x1="93.272%" x2="20.942%" y1="78.806%" y2="21.359%">
            <stop offset="40.96%" stop-color="#BE1E2D" stop-opacity="0"/>
            <stop offset="100%" stop-color="#BE1E2D" stop-opacity=".95"/>
        </linearGradient>
    </defs>
    <g fill="none" fill-rule="evenodd">
        <g>
            <g>
                <g>
                    <path d="M13.254 5.49c-2.07 0-4.041.8-5.531 2.29-3.051 3.05-3.051 8 0 11.02 1.49 1.49 3.42 2.29 5.531 2.29 2.071 0 4.042-.8 5.532-2.29l1.67-1.67-3.89-3.85 3.85-3.85-1.67-1.67c-1.45-1.47-3.41-2.27-5.492-2.27zM28.14 17.12l1.67 1.67c1.49 1.49 3.421 2.29 5.532 2.29 2.11 0 4.041-.8 5.531-2.29 1.491-1.49 2.291-3.42 2.291-5.53 0-2.07-.8-4.04-2.29-5.53-1.491-1.49-3.422-2.29-5.532-2.29-2.111 0-4.042.8-5.532 2.29L28.14 9.4l3.85 3.85-3.85 3.87z" transform="translate(-48 -27) translate(48 18) translate(0 9)"/>
                    <path fill="#46EBC8" fill-rule="nonzero" d="M28.14 9.42l-3.852 3.85-3.851 3.85-1.67 1.67c-1.491 1.49-3.422 2.29-5.533 2.29-2.07 0-4.041-.8-5.531-2.29-3.051-3.05-3.051-8 0-11.02 1.49-1.49 3.42-2.29 5.531-2.29 2.111 0 4.042.8 5.532 2.29l1.67 1.67 3.852-3.85-1.68-1.67C20.056 1.3 16.644.03 13.253.03c-3.39 0-6.802 1.31-9.383 3.89-5.161 5.16-5.161 13.56 0 18.73 2.581 2.58 5.962 3.89 9.383 3.89 3.381 0 6.803-1.31 9.383-3.89l1.671-1.67 3.821-3.85 3.852-3.85-3.842-3.86z" transform="translate(-48 -27) translate(48 18) translate(0 9)"/>
                    <path fill="#FF00A4" fill-rule="nonzero" d="M44.685 3.89C42.104 1.31 38.723 0 35.302 0c-3.381 0-6.803 1.31-9.383 3.89l-1.671 1.67-3.821 3.85-3.852 3.85 3.852 3.85 3.851-3.85 3.851-3.85 1.67-1.67c1.491-1.49 3.422-2.29 5.533-2.29 2.11 0 4.041.8 5.531 2.29 1.491 1.49 2.291 3.42 2.291 5.53 0 2.07-.8 4.04-2.29 5.53-1.491 1.49-3.422 2.29-5.532 2.29-2.111 0-4.042-.8-5.532-2.29l-1.67-1.67-3.852 3.85 1.67 1.67c2.581 2.58 5.963 3.89 9.384 3.89 3.38 0 6.802-1.31 9.383-3.89 5.171-5.16 5.171-13.56-.03-18.76z" transform="translate(-48 -27) translate(48 18) translate(0 9)"/>
                    <g fill="#000" fill-rule="nonzero">
                        <path d="M8.693 5.02c-.15-.84-.84-2.15-2.801-2.15-1.45 0-2.4.95-2.4 1.93 0 .84.55 1.53 1.67 1.71l2.15.4c2.801.55 4.292 2.36 4.292 4.51 0 2.36-1.96 4.73-5.532 4.73-4.071 0-5.852-2.62-6.072-4.8l2.76-.73c.151 1.53 1.201 2.87 3.352 2.87 1.6 0 2.47-.8 2.47-1.89 0-.87-.65-1.56-1.85-1.82l-2.15-.44C2.14 8.83.58 7.27.58 4.98c0-2.73 2.441-4.8 5.352-4.8 3.711 0 5.132 2.25 5.492 3.96l-2.731.88zM16.666 15.86h-2.871V.26h2.87v5.89c.69-.84 1.851-1.16 2.871-1.16 2.691 0 3.962 1.89 3.962 4.22v6.69h-2.871V9.72c0-1.2-.58-2.11-1.96-2.11-1.201 0-1.931.91-2.001 2.07v6.18zM27.83 0c.98 0 1.78.8 1.78 1.78 0 .95-.76 1.75-1.78 1.75-.981 0-1.781-.8-1.781-1.75 0-1.01.8-1.78 1.78-1.78zm-1.461 15.86V5.24h2.87v10.62h-2.87zM32.34 20.66V5.24h2.802v1.31c.47-.84 1.67-1.53 3.27-1.53 3.092 0 4.912 2.36 4.912 5.53 0 3.2-2 5.6-5.021 5.6-1.45 0-2.551-.58-3.051-1.31v5.82H32.34zm5.452-13.09c-1.45 0-2.65 1.09-2.65 2.98s1.2 2.98 2.65 2.98c1.451 0 2.621-1.09 2.621-2.98.04-1.86-1.13-2.98-2.62-2.98zM45.545 20.66V5.24h2.801v1.31c.47-.84 1.67-1.53 3.271-1.53 3.091 0 4.912 2.36 4.912 5.53 0 3.2-2.001 5.6-5.022 5.6-1.45 0-2.55-.58-3.051-1.31v5.82h-2.911zm5.452-13.09c-1.45 0-2.651 1.09-2.651 2.98s1.2 2.98 2.65 2.98c1.451 0 2.622-1.09 2.622-2.98.04-1.86-1.13-2.98-2.621-2.98zM74.975 10.11v5.75h-2.981V.59h5.712c3.02 0 5.021 2 5.021 4.76 0 2.8-2 4.76-5.021 4.76h-2.731zm2.4-2.58c1.491 0 2.401-.87 2.401-2.18 0-1.35-.91-2.22-2.4-2.22h-2.361v4.36h2.36v.04zM91.09 8.11c-.33-.07-.62-.07-.87-.07-1.45 0-2.731.73-2.731 2.98v4.87h-2.871V5.24h2.8V6.8c.651-1.42 2.112-1.67 3.022-1.67.25 0 .44.04.65.04v2.94zM103.344 10.55c0 3.27-2.4 5.64-5.562 5.64-3.16 0-5.562-2.36-5.562-5.64s2.401-5.64 5.562-5.64c3.161 0 5.562 2.37 5.562 5.64zm-2.87 0c0-2-1.311-3.02-2.692-3.02-1.42 0-2.69 1.02-2.69 3.02s1.31 3.02 2.69 3.02 2.691-1.02 2.691-3.02zM65.372 5.17v6.22c-.07 1.16-.76 2.07-2.001 2.07-1.38 0-1.96-.95-1.96-2.11V5.17h-2.872v6.69c0 2.33 1.24 4.22 3.962 4.22 1.02 0 2.18-.36 2.87-1.16v.47c0 2-1.31 3.02-2.69 3.02H60.06v2.62h2.62c2.952 0 5.242-2.04 5.533-4.95l.04-10.91h-2.881z" transform="translate(-48 -27) translate(48 18) translate(0 9) translate(57.709 5.23)"/>
                    </g>
                    <path fill="url(#gu9tc8xtga)" fill-rule="nonzero" d="M22.647 3.89C20.067 1.31 16.645.04 13.264.04c-.25 0-.55 0-.8.04v5.49c.29-.04.55-.04.84-.04 2.071 0 4.042.8 5.532 2.29l1.67 1.67 3.852-3.85-1.71-1.75z" transform="translate(-48 -27) translate(48 18) translate(0 9)"/>
                    <path fill="url(#mz8vliomub)" fill-rule="nonzero" d="M25.959 22.65c2.58 2.58 5.962 3.89 9.383 3.89.25 0 .55 0 .8-.04v-5.49c-.29.04-.55.04-.84.04-2.071 0-4.042-.8-5.532-2.29l-1.67-1.67-3.852 3.85 1.71 1.71z" transform="translate(-48 -27) translate(48 18) translate(0 9)"/>
                </g>
            </g>
        </g>
    </g>
</svg>
